<?xml version="1.0" encoding="UTF-8" standalone="no"?>
<!DOCTYPE svg PUBLIC "-//W3C//DTD SVG 1.1//EN" "http://www.w3.org/Graphics/SVG/1.1/DTD/svg11.dtd">
<!-- Generiert durch Microsoft Visio, SVG Export Ablauf.svg Page-1 -->
<svg xmlns="http://www.w3.org/2000/svg" xmlns:xlink="http://www.w3.org/1999/xlink" xmlns:ev="http://www.w3.org/2001/xml-events"
		xmlns:v="http://schemas.microsoft.com/visio/2003/SVGExtensions/" width="13.8673in" height="6.70981in"
		viewBox="0 0 998.445 483.106" xml:space="preserve" color-interpolation-filters="sRGB" class="st20">
	<v:documentProperties v:langID="1031" v:metric="true" v:viewMarkup="false">
		<v:userDefs>
			<v:ud v:nameU="msvSubprocessMaster" v:prompt="" v:val="VT4(Rectangle)"/>
			<v:ud v:nameU="msvNoAutoConnect" v:val="VT0(1):26"/>
		</v:userDefs>
	</v:documentProperties>

	<style type="text/css">
	<![CDATA[
		.st1 {fill:#cbffff;stroke:#007f7f;stroke-width:0.75}
		.st2 {fill:#f2f2f2;stroke:#000000;stroke-width:0.75}
		.st3 {fill:#003232;font-family:Calibri;font-size:1.16666em;font-weight:bold}
		.st4 {fill:#000000;font-size:0.857157em;font-weight:normal}
		.st5 {marker-end:url(#mrkr4-16);stroke:#000000;stroke-linecap:round;stroke-linejoin:round;stroke-width:1.5}
		.st6 {fill:#000000;fill-opacity:1;stroke:#000000;stroke-opacity:1;stroke-width:0.37313432835821}
		.st7 {fill:#203864;stroke:#000000;stroke-width:0.75}
		.st8 {fill:none;stroke:none;stroke-width:0.25}
		.st9 {fill:#000000;font-family:Calibri;font-size:1.99999em;font-weight:bold}
		.st10 {fill:#ffffff;font-family:Calibri;font-size:1.5em;font-weight:bold}
		.st11 {fill:url(#grad0-33);stroke:#000000;stroke-width:0.75}
		.st12 {fill:#203864;font-family:Calibri;font-size:1.16666em;font-weight:bold}
		.st13 {marker-end:url(#mrkr4-41);stroke:#f2f2f2;stroke-linecap:round;stroke-linejoin:round;stroke-width:1.5}
		.st14 {fill:#f2f2f2;fill-opacity:1;stroke:#f2f2f2;stroke-opacity:1;stroke-width:0.37313432835821}
		.st15 {fill:#007f7f;stroke:#003232;stroke-width:0.75}
		.st16 {fill:#cbffff;font-family:Calibri;font-size:1.16666em;font-weight:bold}
		.st17 {fill:#cbffff;stroke:none;stroke-linecap:butt;stroke-width:6.375}
		.st18 {fill:#ffffff;stroke:none;stroke-linecap:butt;stroke-width:6.375}
		.st19 {fill:#003232;stroke:none;stroke-linecap:butt;stroke-width:6.375}
		.st20 {fill:none;fill-rule:evenodd;font-size:12px;overflow:visible;stroke-linecap:square;stroke-miterlimit:3}
	]]>
	</style>

	<defs id="Patterns_And_Gradients">
		<linearGradient id="grad0-33" x1="0" y1="0" x2="1" y2="0" gradientTransform="rotate(0 0.5 0.5)">
			<stop offset="0" stop-color="#f4b183" stop-opacity="1"/>
			<stop offset="0.23" stop-color="#bf9000" stop-opacity="1"/>
			<stop offset="0.56" stop-color="#ffd965" stop-opacity="1"/>
			<stop offset="1" stop-color="#fee599" stop-opacity="1"/>
		</linearGradient>
	</defs>
	<defs id="Markers">
		<g id="lend4">
			<path d="M 2 1 L 0 0 L 2 -1 L 2 1 " style="stroke:none"/>
		</g>
		<marker id="mrkr4-16" class="st6" v:arrowType="4" v:arrowSize="2" v:setback="5.36" refX="-5.36" orient="auto"
				markerUnits="strokeWidth" overflow="visible">
			<use xlink:href="#lend4" transform="scale(-2.68,-2.68) "/>
		</marker>
		<marker id="mrkr4-41" class="st14" v:arrowType="4" v:arrowSize="2" v:setback="5.36" refX="-5.36" orient="auto"
				markerUnits="strokeWidth" overflow="visible">
			<use xlink:href="#lend4" transform="scale(-2.68,-2.68) "/>
		</marker>
	</defs>
	<g v:mID="0" v:index="1" v:groupContext="foregroundPage">
		<v:userDefs>
			<v:ud v:nameU="msvThemeOrder" v:val="VT0(0):26"/>
		</v:userDefs>
		<title>Zeichenblatt-1</title>
		<v:pageProperties v:drawingScale="0.0393701" v:pageScale="0.0393701" v:drawingUnits="24" v:shadowOffsetX="8.50394"
				v:shadowOffsetY="-8.50394"/>
		<v:layer v:name="Verbinder" v:index="0"/>
		<g id="shape2-1" v:mID="2" v:groupContext="shape" transform="translate(18.75,-111.443)">
			<title>Tabelle.2</title>
			<rect x="0" y="130.193" width="960.945" height="352.913" rx="11.3386" ry="11.3386" class="st1"/>
		</g>
		<g id="shape4-3" v:mID="4" v:groupContext="shape" transform="translate(225.628,-376.452)">
			<title>Tabelle.4</title>
			<desc>Argon2id Payload: Cleartext Password Salt: Base64 encoded eMail</desc>
			<v:textBlock v:margins="rect(4,4,4,4)" v:tabSpace="42.5197"/>
			<v:textRect cx="77.9785" cy="454.745" width="155.96" height="56.7236"/>
			<rect x="0" y="426.383" width="155.957" height="56.7236" rx="5.66929" ry="5.66929" class="st2"/>
			<text x="51.39" y="444.54" class="st3" v:langID="1031"><v:paragraph v:horizAlign="1"/><v:tabList/>Argon2id<v:newlineChar/><tspan
						x="8.91" dy="1.25em" class="st4">Payload: Cleartext Password<v:newlineChar/></tspan><tspan x="10.86"
						dy="1.2em" class="st4">Salt: Base64 encoded eMail</tspan></text>		</g>
		<g id="shape8-8" v:mID="8" v:groupContext="shape" transform="translate(420.936,-312.258)">
			<title>Tabelle.8</title>
			<desc>Master Key</desc>
			<v:textBlock v:margins="rect(4,4,4,4)" v:tabSpace="42.5197"/>
			<v:textRect cx="63.0837" cy="469.89" width="126.17" height="26.4319"/>
			<rect x="0" y="456.674" width="126.167" height="26.4319" rx="5.66929" ry="5.66929" class="st2"/>
			<text x="30.03" y="474.09" class="st3" v:langID="1031"><v:paragraph v:horizAlign="1"/><v:tabList/>Master Key</text>		</g>
		<g id="shape9-11" v:mID="9" v:groupContext="shape" v:layerMember="0" transform="translate(381.585,-404.813)">
			<title>Dynamischer Verbinder.9</title>
			<path d="M0 483.11 L91.1 483.11 A11.3386 11.3386 0 0 1 102.44 494.44 L102.44 541.19" class="st5"/>
		</g>
		<g id="shape10-17" v:mID="10" v:groupContext="shape" transform="translate(18.75,-18.75)">
			<title>Tabelle.10</title>
			<rect x="0" y="403.169" width="960.945" height="79.937" rx="8.50394" ry="8.50394" class="st7"/>
		</g>
		<g id="shape11-19" v:mID="11" v:groupContext="shape" transform="translate(27.2539,-428.844)">
			<title>Tabelle.11</title>
			<desc>PassHub</desc>
			<v:textBlock v:margins="rect(4,4,4,4)" v:tabSpace="42.5197"/>
			<v:textRect cx="53.8583" cy="473.106" width="107.72" height="20"/>
			<rect x="0" y="463.106" width="107.717" height="20" class="st8"/>
			<text x="11.52" y="480.31" class="st9" v:langID="1031"><v:paragraph v:horizAlign="1"/><v:tabList/>PassHub</text>		</g>
		<g id="shape12-22" v:mID="12" v:groupContext="shape" transform="translate(35.0363,-49.0173)">
			<title>Tabelle.12</title>
			<desc>rsPass Backend</desc>
			<v:textBlock v:margins="rect(4,4,4,4)" v:tabSpace="42.5197"/>
			<v:textRect cx="63.0837" cy="473.106" width="126.17" height="20"/>
			<rect x="0" y="463.106" width="126.167" height="20" class="st8"/>
			<text x="6.08" y="478.51" class="st10" v:langID="1031"><v:paragraph v:horizAlign="1"/><v:tabList/>rsPass Backend</text>		</g>
		<g id="shape13-25" v:mID="13" v:groupContext="shape" transform="translate(206.919,-121.349)">
			<title>Tabelle.13</title>
			<desc>API Send eMail and Password Hash to Backend</desc>
			<v:textBlock v:margins="rect(4,4,4,4)" v:tabSpace="42.5197"/>
			<v:textRect cx="77.9785" cy="454.745" width="155.96" height="56.7236"/>
			<rect x="0" y="426.383" width="155.957" height="56.7236" rx="5.66929" ry="5.66929" class="st2"/>
			<text x="68.15" y="444.54" class="st3" v:langID="1031"><v:paragraph v:horizAlign="1"/><v:tabList/>API<v:newlineChar/><tspan
						x="15.58" dy="1.25em" class="st4">Send eMail and Password </tspan><tspan x="37.29" dy="1.2em" class="st4">Hash to Backend</tspan></text>		</g>
		<g id="shape15-30" v:mID="15" v:groupContext="shape" transform="translate(290.824,-30.6555)">
			<title>Tabelle.15</title>
			<desc>Validate Respond with JWT Token</desc>
			<v:textBlock v:margins="rect(4,4,4,4)" v:tabSpace="42.5197"/>
			<v:textRect cx="77.9785" cy="454.745" width="155.96" height="56.7236"/>
			<rect x="0" y="426.383" width="155.957" height="56.7236" rx="5.66929" ry="5.66929" class="st11"/>
			<text x="53.78" y="451.74" class="st12" v:langID="1031"><v:paragraph v:horizAlign="1"/><v:tabList/>Validate<v:newlineChar/><tspan
						x="16.74" dy="1.25em" class="st4">Respond with JWT Token</tspan></text>		</g>
		<g id="shape16-36" v:mID="16" v:groupContext="shape" v:layerMember="0" transform="translate(319.764,-121.349)">
			<title>Dynamischer Verbinder.16</title>
			<path d="M7.09 483.11 L7.09 509.04" class="st13"/>
		</g>
		<g id="shape18-42" v:mID="18" v:groupContext="shape" transform="translate(398.541,-121.349)">
			<title>Tabelle.18</title>
			<desc>API Get encrypted vault with JWT Token</desc>
			<v:textBlock v:margins="rect(4,4,4,4)" v:tabSpace="42.5197"/>
			<v:textRect cx="77.9785" cy="454.745" width="155.96" height="56.7236"/>
			<rect x="0" y="426.383" width="155.957" height="56.7236" rx="5.66929" ry="5.66929" class="st2"/>
			<text x="68.15" y="444.54" class="st3" v:langID="1031"><v:paragraph v:horizAlign="1"/><v:tabList/>API<v:newlineChar/><tspan
						x="5.86" dy="1.25em" class="st4">Get encrypted vault with JWT </tspan><tspan x="63.03" dy="1.2em"
						class="st4">Token</tspan></text>		</g>
		<g id="shape20-47" v:mID="20" v:groupContext="shape" v:layerMember="0" transform="translate(415.575,-87.3791)">
			<title>Dynamischer Verbinder.20</title>
			<path d="M7.09 483.11 L7.09 457.18" class="st13"/>
		</g>
		<g id="shape21-52" v:mID="21" v:groupContext="shape" transform="translate(509.092,-30.6555)">
			<title>Tabelle.21</title>
			<desc>Validate Respond with a JSON including the encrypted Vault</desc>
			<v:textBlock v:margins="rect(4,4,4,4)" v:tabSpace="42.5197"/>
			<v:textRect cx="77.9785" cy="454.745" width="155.96" height="56.7236"/>
			<rect x="0" y="426.383" width="155.957" height="56.7236" rx="5.66929" ry="5.66929" class="st11"/>
			<text x="53.78" y="444.54" class="st12" v:langID="1031"><v:paragraph v:horizAlign="1"/><v:tabList/>Validate<v:newlineChar/><tspan
						x="26.48" dy="1.25em" class="st4">Respond with a JSON </tspan><tspan x="6.06" dy="1.2em" class="st4">including the encrypted Vault</tspan></text>		</g>
		<g id="shape22-58" v:mID="22" v:groupContext="shape" v:layerMember="0" transform="translate(524.708,-121.349)">
			<title>Dynamischer Verbinder.22</title>
			<path d="M7.09 483.11 L7.09 509.04" class="st13"/>
		</g>
		<g id="shape24-63" v:mID="24" v:groupContext="shape" transform="translate(605.522,-121.349)">
			<title>Tabelle.24</title>
			<desc>Base64 Decode Extract the base64 encoded Vault from JSON and ...</desc>
			<v:textBlock v:margins="rect(4,4,4,4)" v:tabSpace="42.5197"/>
			<v:textRect cx="80.5039" cy="454.745" width="161.01" height="56.7236"/>
			<rect x="0" y="426.383" width="161.008" height="56.7236" rx="5.66929" ry="5.66929" class="st2"/>
			<text x="36.22" y="444.54" class="st3" v:langID="1031"><v:paragraph v:horizAlign="1"/><v:tabList/>Base64 Decode<v:newlineChar/><tspan
						x="12.67" dy="1.25em" class="st4">Extract the base64 encoded </tspan><tspan x="5.97" dy="1.2em" class="st4">Vault from JSON and decode it</tspan></text>		</g>
		<g id="shape25-68" v:mID="25" v:groupContext="shape" v:layerMember="0" transform="translate(628.199,-87.3791)">
			<title>Dynamischer Verbinder.25</title>
			<path d="M7.09 483.11 L7.09 457.18" class="st13"/>
		</g>
		<g id="shape26-73" v:mID="26" v:groupContext="shape" transform="translate(605.522,-200.734)">
			<title>Tabelle.26</title>
			<desc>AES-Key Convert password hash to AES compatible key</desc>
			<v:textBlock v:margins="rect(4,4,4,4)" v:tabSpace="42.5197"/>
			<v:textRect cx="80.5039" cy="454.745" width="161.01" height="56.7236"/>
			<rect x="0" y="426.383" width="161.008" height="56.7236" rx="5.66929" ry="5.66929" class="st2"/>
			<text x="56.73" y="444.54" class="st3" v:langID="1031"><v:paragraph v:horizAlign="1"/><v:tabList/>AES-Key<v:newlineChar/><tspan
						x="6.49" dy="1.25em" class="st4">Convert password hash to AES </tspan><tspan x="43.3" dy="1.2em"
						class="st4">compatible key</tspan></text>		</g>
		<g id="shape29-78" v:mID="29" v:groupContext="shape" transform="translate(790.341,-200.734)">
			<title>Tabelle.29</title>
			<desc>Extact Nonce First 12 Bytes of the decoded Data are the IV</desc>
			<v:textBlock v:margins="rect(4,4,4,4)" v:tabSpace="42.5197"/>
			<v:textRect cx="80.5039" cy="454.745" width="161.01" height="56.7236"/>
			<rect x="0" y="426.383" width="161.008" height="56.7236" rx="5.66929" ry="5.66929" class="st2"/>
			<text x="42.47" y="444.54" class="st3" v:langID="1031"><v:paragraph v:horizAlign="1"/><v:tabList/>Extact Nonce<v:newlineChar/><tspan
						x="9.46" dy="1.25em" class="st4">First 12 Bytes of the decoded </tspan><tspan x="43.97" dy="1.2em"
						class="st4">Data are the IV</tspan></text>		</g>
		<g id="shape31-83" v:mID="31" v:groupContext="shape" v:layerMember="0" transform="translate(483.957,-312.258)">
			<title>Dynamischer Verbinder.31</title>
			<path d="M0 483.11 L0 560.05 A11.3386 11.3386 -180 0 0 11.34 571.39 L113.52 571.39" class="st5"/>
		</g>
		<g id="shape32-88" v:mID="32" v:groupContext="shape" transform="translate(697.931,-282.679)">
			<title>Tabelle.32</title>
			<desc>AES-256 GCM Decrypt data with Nonce and AES-Key</desc>
			<v:textBlock v:margins="rect(4,4,4,4)" v:tabSpace="42.5197"/>
			<v:textRect cx="80.5039" cy="454.745" width="161.01" height="56.7236"/>
			<rect x="0" y="426.383" width="161.008" height="56.7236" rx="5.66929" ry="5.66929" class="st2"/>
			<text x="40.89" y="444.54" class="st3" v:langID="1031"><v:paragraph v:horizAlign="1"/><v:tabList/>AES-256 GCM<v:newlineChar/><tspan
						x="9.27" dy="1.25em" class="st4">Decrypt data with Nonce and </tspan><tspan x="60.69" dy="1.2em"
						class="st4">AES</tspan><tspan class="st4">-</tspan><tspan class="st4">Key</tspan></text>		</g>
		<g id="shape33-95" v:mID="33" v:groupContext="shape" v:layerMember="0" transform="translate(766.53,-149.711)">
			<title>Dynamischer Verbinder.33</title>
			<path d="M0 483.11 L92.98 483.11 A11.3386 11.3386 -180 0 0 104.31 471.77 L104.31 440.12" class="st5"/>
		</g>
		<g id="shape34-100" v:mID="34" v:groupContext="shape" v:layerMember="0" transform="translate(725.144,-257.458)">
			<title>Dynamischer Verbinder.34</title>
			<path d="M7.09 483.11 L7.09 465.93" class="st5"/>
		</g>
		<g id="shape35-105" v:mID="35" v:groupContext="shape" v:layerMember="0" transform="translate(817.553,-257.458)">
			<title>Dynamischer Verbinder.35</title>
			<path d="M7.09 483.11 L7.09 465.93" class="st5"/>
		</g>
		<g id="shape36-110" v:mID="36" v:groupContext="shape" transform="translate(697.931,-376.452)">
			<title>Tabelle.36</title>
			<desc>DISPLAY VAULT</desc>
			<v:textBlock v:margins="rect(4,4,4,4)" v:tabSpace="42.5197"/>
			<v:textRect cx="80.5039" cy="454.745" width="161.01" height="56.7236"/>
			<rect x="0" y="426.383" width="161.008" height="56.7236" rx="5.66929" ry="5.66929" class="st15"/>
			<text x="35.39" y="458.94" class="st16" v:langID="1031"><v:paragraph v:horizAlign="1"/><v:tabList/>DISPLAY VAULT</text>		</g>
		<g id="shape37-113" v:mID="37" v:groupContext="shape" v:layerMember="0" transform="translate(771.348,-339.403)">
			<title>Dynamischer Verbinder.37</title>
			<path d="M7.09 483.11 L7.09 454.1" class="st5"/>
		</g>
		<g id="shape39-118" v:mID="39" v:groupContext="shape" transform="translate(225.628,-297.112)">
			<title>Tabelle.39</title>
			<desc>Argon2id Payload: Master Key Salt: Cleartext Password</desc>
			<v:textBlock v:margins="rect(4,4,4,4)" v:tabSpace="42.5197"/>
			<v:textRect cx="77.9785" cy="454.745" width="155.96" height="56.7236"/>
			<rect x="0" y="426.383" width="155.957" height="56.7236" rx="5.66929" ry="5.66929" class="st2"/>
			<text x="51.39" y="444.54" class="st3" v:langID="1031"><v:paragraph v:horizAlign="1"/><v:tabList/>Argon2id<v:newlineChar/><tspan
						x="28.15" dy="1.25em" class="st4">Payload: Master Key<v:newlineChar/></tspan><tspan x="19.15" dy="1.2em"
						class="st4">Salt: Cleartext Password</tspan></text>		</g>
		<g id="shape42-123" v:mID="42" v:groupContext="shape" transform="translate(53.745,-314.003)">
			<title>Tabelle.42</title>
			<desc>Cleartext Password</desc>
			<v:textBlock v:margins="rect(4,4,4,4)" v:tabSpace="42.5197"/>
			<v:textRect cx="63.0837" cy="469.89" width="126.17" height="26.4319"/>
			<rect x="0" y="456.674" width="126.167" height="26.4319" rx="5.66929" ry="5.66929" class="st2"/>
			<text x="7.03" y="474.09" class="st3" v:langID="1031"><v:paragraph v:horizAlign="1"/><v:tabList/>Cleartext Password</text>		</g>
		<g id="shape44-126" v:mID="44" v:groupContext="shape" v:layerMember="0" transform="translate(116.829,-340.435)">
			<title>Dynamischer Verbinder.44</title>
			<path d="M0 483.11 L0 430.07 A11.3386 11.3386 0 0 1 11.34 418.73 L100.76 418.73" class="st5"/>
		</g>
		<g id="shape46-131" v:mID="46" v:groupContext="shape" v:layerMember="0" transform="translate(179.912,-320.133)">
			<title>Dynamischer Verbinder.46</title>
			<path d="M0 476.02 L37.68 476.02" class="st5"/>
		</g>
		<g id="shape47-136" v:mID="47" v:groupContext="shape" v:layerMember="0" transform="translate(420.936,-318.387)">
			<title>Dynamischer Verbinder.47</title>
			<path d="M0 476.02 L-31.31 476.02" class="st5"/>
		</g>
		<g id="shape48-141" v:mID="48" v:groupContext="shape" transform="translate(226.261,-215.88)">
			<title>Tabelle.48</title>
			<desc>Master Password Hash</desc>
			<v:textBlock v:margins="rect(4,4,4,4)" v:tabSpace="42.5197"/>
			<v:textRect cx="77.9785" cy="469.89" width="155.96" height="26.4319"/>
			<rect x="0" y="456.674" width="155.957" height="26.4319" rx="5.66929" ry="5.66929" class="st2"/>
			<text x="11.6" y="474.09" class="st3" v:langID="1031"><v:paragraph v:horizAlign="1"/><v:tabList/>Master Password Hash</text>		</g>
		<g id="shape49-144" v:mID="49" v:groupContext="shape" v:layerMember="0" transform="translate(296.836,-297.112)">
			<title>Dynamischer Verbinder.49</title>
			<path d="M7.09 483.11 L7.09 529.87" class="st5"/>
		</g>
		<g id="shape50-149" v:mID="50" v:groupContext="shape" v:layerMember="0" transform="translate(287.482,-215.88)">
			<title>Dynamischer Verbinder.50</title>
			<path d="M7.09 483.11 L7.09 512.87" class="st5"/>
		</g>
		<g id="group52-154" transform="translate(837.797,-408.726)" v:mID="52" v:groupContext="group">
			<title>Tabelle.52</title>
			<g id="group53-155" v:mID="53" v:groupContext="group">
				<title>Tabelle.53</title>
				<g id="shape54-156" v:mID="54" v:groupContext="shape" transform="translate(0,-15.7895)">
					<title>Tabelle.54</title>
					<ellipse cx="7.36842" cy="481.001" rx="7.36842" ry="2.10526" class="st17"/>
				</g>
				<g id="shape55-158" v:mID="55" v:groupContext="shape" transform="translate(0,-10.5263)">
					<title>Tabelle.55</title>
					<path d="M12.63 481 C12.32 481 12.11 480.79 12.11 480.47 C12.11 480.16 12.32 479.95 12.63 479.95 C12.95 479.95
								 13.16 480.16 13.16 480.47 C13.16 480.79 12.95 481 12.63 481 ZM7.37 478.9 C3.32 478.9 0 477.95 0
								 476.79 L0 481 C0 482.16 3.32 483.11 7.37 483.11 C11.42 483.11 14.74 482.16 14.74 481 L14.74 476.79
								 C14.74 477.95 11.42 478.9 7.37 478.9 Z" class="st17"/>
				</g>
				<g id="shape56-160" v:mID="56" v:groupContext="shape" transform="translate(0,-5.26316)">
					<title>Tabelle.56</title>
					<path d="M12.63 481 C12.32 481 12.11 480.79 12.11 480.47 C12.11 480.16 12.32 479.95 12.63 479.95 C12.95 479.95
								 13.16 480.16 13.16 480.47 C13.16 480.79 12.95 481 12.63 481 ZM7.37 478.9 C3.32 478.9 0 477.95 0
								 476.79 L0 481 C0 482.16 3.32 483.11 7.37 483.11 C11.42 483.11 14.74 482.16 14.74 481 L14.74 476.79
								 C14.74 477.95 11.42 478.9 7.37 478.9 Z" class="st17"/>
				</g>
				<g id="shape57-162" v:mID="57" v:groupContext="shape">
					<title>Tabelle.57</title>
					<path d="M12.63 481 C12.32 481 12.11 480.79 12.11 480.47 C12.11 480.16 12.32 479.95 12.63 479.95 C12.95 479.95
								 13.16 480.16 13.16 480.47 C13.16 480.79 12.95 481 12.63 481 ZM7.37 478.9 C3.32 478.9 0 477.95 0
								 476.79 L0 481 C0 482.16 3.32 483.11 7.37 483.11 C11.42 483.11 14.74 482.16 14.74 481 L14.74 476.79
								 C14.74 477.95 11.42 478.9 7.37 478.9 Z" class="st17"/>
				</g>
			</g>
		</g>
		<g id="shape58-164" v:mID="58" v:groupContext="shape" transform="translate(36.3248,-226.215)">
			<title>Tabelle.58</title>
			<desc>LOGIN SCREEN</desc>
			<v:textBlock v:margins="rect(4,4,4,4)" v:tabSpace="42.5197"/>
			<v:textRect cx="80.5039" cy="454.745" width="161.01" height="56.7236"/>
			<rect x="0" y="426.383" width="161.008" height="56.7236" rx="5.66929" ry="5.66929" class="st15"/>
			<text x="37.9" y="458.94" class="st16" v:langID="1031"><v:paragraph v:horizAlign="1"/><v:tabList/>LOGIN SCREEN</text>		</g>
		<g id="shape59-167" v:mID="59" v:groupContext="shape" v:layerMember="0" transform="translate(109.742,-282.939)">
			<title>Dynamischer Verbinder</title>
			<path d="M7.09 483.11 L7.09 460.08" class="st5"/>
		</g>
		<g id="group60-172" transform="translate(914.283,-47.3877)" v:mID="60" v:groupContext="group">
			<title>Tabelle.60</title>
			<g id="shape61-173" v:mID="61" v:groupContext="shape">
				<title>Tabelle.61</title>
				<path d="M34.51 471.76 C34.37 471.76 34.18 471.76 34.04 471.76 C34.04 471.76 34.04 471.76 34.04 471.76 C34.04 469.45
							 32.91 467.33 31.08 466.02 C29.19 464.7 26.79 464.37 24.62 465.12 C22.84 461.64 18.88 459.85 15.11 460.74
							 C11.35 461.64 8.62 465.03 8.62 468.93 C8.62 468.93 8.62 468.98 8.62 469.03 C6.03 468.6 3.44 469.69 1.84
							 471.76 C0.28 473.88 0 476.66 1.08 479.01 C2.21 481.36 4.57 482.92 7.16 483.06 L7.16 483.11 L34.47 483.11
							 C37.57 483.11 40.12 480.56 40.12 477.46 C40.12 474.35 37.62 471.76 34.51 471.76 Z" class="st18"/>
			</g>
		</g>
		<g id="group62-175" transform="translate(337.445,-156.607)" v:mID="62" v:groupContext="group">
			<title>Tabelle.62</title>
			<g id="shape63-176" v:mID="63" v:groupContext="shape">
				<title>Tabelle.63</title>
				<path d="M14.1 480.58 L10.28 479.26 L10.26 479.26 L8.73 478.73 L15.89 469.28 L14.1 480.58 ZM9.32 479.86 L7.92 481.26
							 L8.3 479.52 L9.32 479.86 ZM7.62 478.77 C7.58 478.82 7.56 478.88 7.54 478.94 L7.48 479.22 L7.05 481.15
							 L6.03 478.18 L13.98 470.53 L7.88 478.46 L7.62 478.77 ZM1.49 476.27 L13.93 469.64 L5.42 477.61 L1.49
							 476.27 ZM16.82 467.43 C16.69 467.33 16.5 467.33 16.35 467.41 L0.23 475.97 C0.08 476.06 0 476.2 0 476.37
							 C0 476.54 0.13 476.69 0.28 476.73 L4.69 478.24 L5.25 478.43 L5.37 478.79 L6.69 482.75 L6.69 482.77 L6.69
							 482.79 C6.73 482.92 6.86 483.02 7.01 483.06 C7.16 483.11 7.31 483.06 7.41 482.96 L7.43 482.94 L7.56
							 482.81 L10.24 480.18 L14.31 481.58 C14.44 481.62 14.57 481.6 14.68 481.53 C14.78 481.47 14.87 481.36
							 14.89 481.24 L17.01 467.86 C17.03 467.67 16.95 467.52 16.82 467.43 Z" class="st19"/>
			</g>
		</g>
		<g id="group64-178" transform="translate(528.973,-156.607)" v:mID="64" v:groupContext="group">
			<title>Tabelle.64</title>
			<g id="shape65-179" v:mID="65" v:groupContext="shape">
				<title>Tabelle.65</title>
				<path d="M14.1 480.58 L10.28 479.26 L10.26 479.26 L8.73 478.73 L15.89 469.28 L14.1 480.58 ZM9.32 479.86 L7.92 481.26
							 L8.3 479.52 L9.32 479.86 ZM7.62 478.77 C7.58 478.82 7.56 478.88 7.54 478.94 L7.48 479.22 L7.05 481.15
							 L6.03 478.18 L13.98 470.53 L7.88 478.46 L7.62 478.77 ZM1.49 476.27 L13.93 469.64 L5.42 477.61 L1.49
							 476.27 ZM16.82 467.43 C16.69 467.33 16.5 467.33 16.35 467.41 L0.23 475.97 C0.08 476.06 0 476.2 0 476.37
							 C0 476.54 0.13 476.69 0.28 476.73 L4.69 478.24 L5.25 478.43 L5.37 478.79 L6.69 482.75 L6.69 482.77 L6.69
							 482.79 C6.73 482.92 6.86 483.02 7.01 483.06 C7.16 483.11 7.31 483.06 7.41 482.96 L7.43 482.94 L7.56
							 482.81 L10.24 480.18 L14.31 481.58 C14.44 481.62 14.57 481.6 14.68 481.53 C14.78 481.47 14.87 481.36
							 14.89 481.24 L17.01 467.86 C17.03 467.67 16.95 467.52 16.82 467.43 Z" class="st19"/>
			</g>
		</g>
		<g id="group66-181" transform="translate(361.021,-412.696)" v:mID="66" v:groupContext="group">
			<title>Tabelle.66</title>
			<g id="shape67-182" v:mID="67" v:groupContext="shape">
				<title>Tabelle.67</title>
				<path d="M6.85 479.61 L6.85 480.82 L5.93 480.82 L5.93 479.61 C5.41 479.43 5.02 478.93 5.02 478.31 C5.02 477.56 5.64
							 476.94 6.39 476.94 C7.14 476.94 7.76 477.56 7.76 478.31 C7.76 478.91 7.37 479.41 6.85 479.61 ZM2.97
							 471.24 C2.97 469.34 4.5 467.81 6.39 467.81 C8.29 467.81 9.81 469.34 9.81 471.24 L9.81 473.77 L6.39 473.52
							 L2.97 473.77 L2.97 471.24 ZM11.18 473.86 L11.18 471.24 C11.18 468.59 9.04 466.44 6.39 466.44 C3.74 466.44
							 1.6 468.59 1.6 471.24 L1.6 473.86 L0 473.98 L0 482.65 L6.39 483.11 L12.78 482.65 L12.78 473.98 L11.18
							 473.86 Z" class="st19"/>
			</g>
		</g>
		<g id="group68-184" transform="translate(361.021,-333.094)" v:mID="68" v:groupContext="group">
			<title>Tabelle.68</title>
			<g id="shape69-185" v:mID="69" v:groupContext="shape">
				<title>Tabelle.69</title>
				<path d="M6.85 479.61 L6.85 480.82 L5.93 480.82 L5.93 479.61 C5.41 479.43 5.02 478.93 5.02 478.31 C5.02 477.56 5.64
							 476.94 6.39 476.94 C7.14 476.94 7.76 477.56 7.76 478.31 C7.76 478.91 7.37 479.41 6.85 479.61 ZM2.97
							 471.24 C2.97 469.34 4.5 467.81 6.39 467.81 C8.29 467.81 9.81 469.34 9.81 471.24 L9.81 473.77 L6.39 473.52
							 L2.97 473.77 L2.97 471.24 ZM11.18 473.86 L11.18 471.24 C11.18 468.59 9.04 466.44 6.39 466.44 C3.74 466.44
							 1.6 468.59 1.6 471.24 L1.6 473.86 L0 473.98 L0 482.65 L6.39 483.11 L12.78 482.65 L12.78 473.98 L11.18
							 473.86 Z" class="st19"/>
			</g>
		</g>
		<g id="group70-187" transform="translate(838.368,-318.692)" v:mID="70" v:groupContext="group">
			<title>Tabelle.70</title>
			<g id="shape71-188" v:mID="71" v:groupContext="shape">
				<title>Tabelle.71</title>
				<path d="M6.85 479.61 L6.85 480.82 L5.93 480.82 L5.93 479.61 C5.41 479.43 5.02 478.93 5.02 478.31 C5.02 477.56 5.64
							 476.94 6.39 476.94 C7.14 476.94 7.76 477.56 7.76 478.31 C7.76 478.91 7.37 479.41 6.85 479.61 ZM2.97
							 471.24 C2.97 469.34 4.5 467.81 6.39 467.81 C8.29 467.81 9.81 469.34 9.81 471.24 L9.81 473.77 L6.39 473.52
							 L2.97 473.77 L2.97 471.24 ZM11.18 473.86 L11.18 471.24 C11.18 468.59 9.04 466.44 6.39 466.44 C3.74 466.44
							 1.6 468.59 1.6 471.24 L1.6 473.86 L0 473.98 L0 482.65 L6.39 483.11 L12.78 482.65 L12.78 473.98 L11.18
							 473.86 Z" class="st19"/>
			</g>
		</g>
	</g>
</svg>
