<?xml version="1.0" encoding="UTF-8" standalone="no"?>
<!DOCTYPE svg PUBLIC "-//W3C//DTD SVG 1.1//EN" "http://www.w3.org/Graphics/SVG/1.1/DTD/svg11.dtd">
<!-- Generiert durch Microsoft Visio, SVG Export Ablauf.svg Page-1 -->
<svg xmlns="http://www.w3.org/2000/svg" xmlns:xlink="http://www.w3.org/1999/xlink" xmlns:ev="http://www.w3.org/2001/xml-events"
		xmlns:v="http://schemas.microsoft.com/visio/2003/SVGExtensions/" width="16.5354in" height="11.6929in"
		viewBox="0 0 1190.55 841.89" xml:space="preserve" color-interpolation-filters="sRGB" class="st20">
	<v:documentProperties v:langID="1031" v:metric="true" v:viewMarkup="false">
		<v:userDefs>
			<v:ud v:nameU="msvSubprocessMaster" v:prompt="" v:val="VT4(Rectangle)"/>
			<v:ud v:nameU="msvNoAutoConnect" v:val="VT0(1):26"/>
		</v:userDefs>
	</v:documentProperties>

	<style type="text/css">
	<![CDATA[
		.st1 {fill:#cbffff;stroke:#007f7f;stroke-width:0.75}
		.st2 {fill:#f2f2f2;stroke:#000000;stroke-width:0.75}
		.st3 {fill:#003232;font-family:Calibri;font-size:1.16666em;font-weight:bold}
		.st4 {fill:#000000;font-size:0.857157em;font-weight:normal}
		.st5 {marker-end:url(#mrkr4-16);stroke:#000000;stroke-linecap:round;stroke-linejoin:round;stroke-width:1.5}
		.st6 {fill:#000000;fill-opacity:1;stroke:#000000;stroke-opacity:1;stroke-width:0.37313432835821}
		.st7 {fill:#203864;stroke:#000000;stroke-width:0.75}
		.st8 {fill:none;stroke:none;stroke-width:0.25}
		.st9 {fill:#000000;font-family:Calibri;font-size:1.99999em;font-weight:bold}
		.st10 {fill:#ffffff;font-family:Calibri;font-size:1.5em;font-weight:bold}
		.st11 {fill:url(#grad0-33);stroke:#000000;stroke-width:0.75}
		.st12 {fill:#203864;font-family:Calibri;font-size:1.16666em;font-weight:bold}
		.st13 {marker-end:url(#mrkr4-41);stroke:#f2f2f2;stroke-linecap:round;stroke-linejoin:round;stroke-width:1.5}
		.st14 {fill:#f2f2f2;fill-opacity:1;stroke:#f2f2f2;stroke-opacity:1;stroke-width:0.37313432835821}
		.st15 {fill:#007f7f;stroke:#003232;stroke-width:0.75}
		.st16 {fill:#cbffff;font-family:Calibri;font-size:1.16666em;font-weight:bold}
		.st17 {fill:#cbffff;stroke:none;stroke-linecap:butt;stroke-width:6.375}
		.st18 {fill:#ffffff;stroke:none;stroke-linecap:butt;stroke-width:6.375}
		.st19 {fill:#003232;stroke:none;stroke-linecap:butt;stroke-width:6.375}
		.st20 {fill:none;fill-rule:evenodd;font-size:12px;overflow:visible;stroke-linecap:square;stroke-miterlimit:3}
	]]>
	</style>

	<defs id="Patterns_And_Gradients">
		<linearGradient id="grad0-33" x1="0" y1="0" x2="1" y2="0" gradientTransform="rotate(0 0.5 0.5)">
			<stop offset="0" stop-color="#f4b183" stop-opacity="1"/>
			<stop offset="0.23" stop-color="#bf9000" stop-opacity="1"/>
			<stop offset="0.56" stop-color="#ffd965" stop-opacity="1"/>
			<stop offset="1" stop-color="#fee599" stop-opacity="1"/>
		</linearGradient>
	</defs>
	<defs id="Markers">
		<g id="lend4">
			<path d="M 2 1 L 0 0 L 2 -1 L 2 1 " style="stroke:none"/>
		</g>
		<marker id="mrkr4-16" class="st6" v:arrowType="4" v:arrowSize="2" v:setback="5.36" refX="-5.36" orient="auto"
				markerUnits="strokeWidth" overflow="visible">
			<use xlink:href="#lend4" transform="scale(-2.68,-2.68) "/>
		</marker>
		<marker id="mrkr4-41" class="st14" v:arrowType="4" v:arrowSize="2" v:setback="5.36" refX="-5.36" orient="auto"
				markerUnits="strokeWidth" overflow="visible">
			<use xlink:href="#lend4" transform="scale(-2.68,-2.68) "/>
		</marker>
	</defs>
	<g v:mID="0" v:index="1" v:groupContext="foregroundPage">
		<v:userDefs>
			<v:ud v:nameU="msvThemeOrder" v:val="VT0(0):26"/>
		</v:userDefs>
		<title>Zeichenblatt-1</title>
		<v:pageProperties v:drawingScale="0.0393701" v:pageScale="0.0393701" v:drawingUnits="24" v:shadowOffsetX="8.50394"
				v:shadowOffsetY="-8.50394"/>
		<v:layer v:name="Verbinder" v:index="0"/>
		<g id="shape2-1" v:mID="2" v:groupContext="shape" transform="translate(96.378,-437.953)">
			<title>Tabelle.2</title>
			<rect x="0" y="488.976" width="960.945" height="352.913" rx="11.3386" ry="11.3386" class="st1"/>
		</g>
		<g id="shape4-3" v:mID="4" v:groupContext="shape" transform="translate(303.256,-702.961)">
			<title>Tabelle.4</title>
			<desc>Argon2id Payload: Cleartext Password Salt: Base64 encoded eMail</desc>
			<v:textBlock v:margins="rect(4,4,4,4)" v:tabSpace="42.5197"/>
			<v:textRect cx="77.9785" cy="813.528" width="155.96" height="56.7236"/>
			<rect x="0" y="785.166" width="155.957" height="56.7236" rx="5.66929" ry="5.66929" class="st2"/>
			<text x="51.39" y="803.33" class="st3" v:langID="1031"><v:paragraph v:horizAlign="1"/><v:tabList/>Argon2id<v:newlineChar/><tspan
						x="8.91" dy="1.25em" class="st4">Payload: Cleartext Password<v:newlineChar/></tspan><tspan x="10.86"
						dy="1.2em" class="st4">Salt: Base64 encoded eMail</tspan></text>		</g>
		<g id="shape8-8" v:mID="8" v:groupContext="shape" transform="translate(498.564,-638.768)">
			<title>Tabelle.8</title>
			<desc>Master Key</desc>
			<v:textBlock v:margins="rect(4,4,4,4)" v:tabSpace="42.5197"/>
			<v:textRect cx="63.0837" cy="828.674" width="126.17" height="26.4319"/>
			<rect x="0" y="815.458" width="126.167" height="26.4319" rx="5.66929" ry="5.66929" class="st2"/>
			<text x="30.03" y="832.87" class="st3" v:langID="1031"><v:paragraph v:horizAlign="1"/><v:tabList/>Master Key</text>		</g>
		<g id="shape9-11" v:mID="9" v:groupContext="shape" v:layerMember="0" transform="translate(459.213,-731.323)">
			<title>Dynamischer Verbinder.9</title>
			<path d="M0 841.89 L91.1 841.89 A11.3386 11.3386 0 0 1 102.44 853.23 L102.44 899.97" class="st5"/>
		</g>
		<g id="shape10-17" v:mID="10" v:groupContext="shape" transform="translate(96.378,-345.26)">
			<title>Tabelle.10</title>
			<rect x="0" y="761.953" width="960.945" height="79.937" rx="8.50394" ry="8.50394" class="st7"/>
		</g>
		<g id="shape11-19" v:mID="11" v:groupContext="shape" transform="translate(104.882,-755.354)">
			<title>Tabelle.11</title>
			<desc>PassHub</desc>
			<v:textBlock v:margins="rect(4,4,4,4)" v:tabSpace="42.5197"/>
			<v:textRect cx="53.8583" cy="831.89" width="107.72" height="20"/>
			<rect x="0" y="821.89" width="107.717" height="20" class="st8"/>
			<text x="11.52" y="839.09" class="st9" v:langID="1031"><v:paragraph v:horizAlign="1"/><v:tabList/>PassHub</text>		</g>
		<g id="shape12-22" v:mID="12" v:groupContext="shape" transform="translate(112.664,-375.527)">
			<title>Tabelle.12</title>
			<desc>rsPass Backend</desc>
			<v:textBlock v:margins="rect(4,4,4,4)" v:tabSpace="42.5197"/>
			<v:textRect cx="63.0837" cy="831.89" width="126.17" height="20"/>
			<rect x="0" y="821.89" width="126.167" height="20" class="st8"/>
			<text x="6.08" y="837.29" class="st10" v:langID="1031"><v:paragraph v:horizAlign="1"/><v:tabList/>rsPass Backend</text>		</g>
		<g id="shape13-25" v:mID="13" v:groupContext="shape" transform="translate(284.547,-447.859)">
			<title>Tabelle.13</title>
			<desc>API Send eMail and Password Hash to Backend</desc>
			<v:textBlock v:margins="rect(4,4,4,4)" v:tabSpace="42.5197"/>
			<v:textRect cx="77.9785" cy="813.528" width="155.96" height="56.7236"/>
			<rect x="0" y="785.166" width="155.957" height="56.7236" rx="5.66929" ry="5.66929" class="st2"/>
			<text x="68.15" y="803.33" class="st3" v:langID="1031"><v:paragraph v:horizAlign="1"/><v:tabList/>API<v:newlineChar/><tspan
						x="15.58" dy="1.25em" class="st4">Send eMail and Password </tspan><tspan x="37.29" dy="1.2em" class="st4">Hash to Backend</tspan></text>		</g>
		<g id="shape15-30" v:mID="15" v:groupContext="shape" transform="translate(368.452,-357.165)">
			<title>Tabelle.15</title>
			<desc>Validate Respond with JWT Token</desc>
			<v:textBlock v:margins="rect(4,4,4,4)" v:tabSpace="42.5197"/>
			<v:textRect cx="77.9785" cy="813.528" width="155.96" height="56.7236"/>
			<rect x="0" y="785.166" width="155.957" height="56.7236" rx="5.66929" ry="5.66929" class="st11"/>
			<text x="53.78" y="810.53" class="st12" v:langID="1031"><v:paragraph v:horizAlign="1"/><v:tabList/>Validate<v:newlineChar/><tspan
						x="16.74" dy="1.25em" class="st4">Respond with JWT Token</tspan></text>		</g>
		<g id="shape16-36" v:mID="16" v:groupContext="shape" v:layerMember="0" transform="translate(397.392,-447.859)">
			<title>Dynamischer Verbinder.16</title>
			<path d="M7.09 841.89 L7.09 867.82" class="st13"/>
		</g>
		<g id="shape18-42" v:mID="18" v:groupContext="shape" transform="translate(476.169,-447.859)">
			<title>Tabelle.18</title>
			<desc>API Get encrypted vault with JWT Token</desc>
			<v:textBlock v:margins="rect(4,4,4,4)" v:tabSpace="42.5197"/>
			<v:textRect cx="77.9785" cy="813.528" width="155.96" height="56.7236"/>
			<rect x="0" y="785.166" width="155.957" height="56.7236" rx="5.66929" ry="5.66929" class="st2"/>
			<text x="68.15" y="803.33" class="st3" v:langID="1031"><v:paragraph v:horizAlign="1"/><v:tabList/>API<v:newlineChar/><tspan
						x="5.86" dy="1.25em" class="st4">Get encrypted vault with JWT </tspan><tspan x="63.03" dy="1.2em"
						class="st4">Token</tspan></text>		</g>
		<g id="shape20-47" v:mID="20" v:groupContext="shape" v:layerMember="0" transform="translate(493.203,-413.889)">
			<title>Dynamischer Verbinder.20</title>
			<path d="M7.09 841.89 L7.09 815.96" class="st13"/>
		</g>
		<g id="shape21-52" v:mID="21" v:groupContext="shape" transform="translate(586.72,-357.165)">
			<title>Tabelle.21</title>
			<desc>Validate Respond with a JSON including the encrypted Vault</desc>
			<v:textBlock v:margins="rect(4,4,4,4)" v:tabSpace="42.5197"/>
			<v:textRect cx="77.9785" cy="813.528" width="155.96" height="56.7236"/>
			<rect x="0" y="785.166" width="155.957" height="56.7236" rx="5.66929" ry="5.66929" class="st11"/>
			<text x="53.78" y="803.33" class="st12" v:langID="1031"><v:paragraph v:horizAlign="1"/><v:tabList/>Validate<v:newlineChar/><tspan
						x="26.48" dy="1.25em" class="st4">Respond with a JSON </tspan><tspan x="6.06" dy="1.2em" class="st4">including the encrypted Vault</tspan></text>		</g>
		<g id="shape22-58" v:mID="22" v:groupContext="shape" v:layerMember="0" transform="translate(602.336,-447.859)">
			<title>Dynamischer Verbinder.22</title>
			<path d="M7.09 841.89 L7.09 867.82" class="st13"/>
		</g>
		<g id="shape24-63" v:mID="24" v:groupContext="shape" transform="translate(683.15,-447.859)">
			<title>Tabelle.24</title>
			<desc>Base64 Decode Extract the base64 encoded Vault from JSON and ...</desc>
			<v:textBlock v:margins="rect(4,4,4,4)" v:tabSpace="42.5197"/>
			<v:textRect cx="80.5039" cy="813.528" width="161.01" height="56.7236"/>
			<rect x="0" y="785.166" width="161.008" height="56.7236" rx="5.66929" ry="5.66929" class="st2"/>
			<text x="36.22" y="803.33" class="st3" v:langID="1031"><v:paragraph v:horizAlign="1"/><v:tabList/>Base64 Decode<v:newlineChar/><tspan
						x="12.67" dy="1.25em" class="st4">Extract the base64 encoded </tspan><tspan x="5.97" dy="1.2em" class="st4">Vault from JSON and decode it</tspan></text>		</g>
		<g id="shape25-68" v:mID="25" v:groupContext="shape" v:layerMember="0" transform="translate(705.827,-413.889)">
			<title>Dynamischer Verbinder.25</title>
			<path d="M7.09 841.89 L7.09 815.96" class="st13"/>
		</g>
		<g id="shape26-73" v:mID="26" v:groupContext="shape" transform="translate(683.15,-527.244)">
			<title>Tabelle.26</title>
			<desc>AES-Key Convert password hash to AES compatible key</desc>
			<v:textBlock v:margins="rect(4,4,4,4)" v:tabSpace="42.5197"/>
			<v:textRect cx="80.5039" cy="813.528" width="161.01" height="56.7236"/>
			<rect x="0" y="785.166" width="161.008" height="56.7236" rx="5.66929" ry="5.66929" class="st2"/>
			<text x="56.73" y="803.33" class="st3" v:langID="1031"><v:paragraph v:horizAlign="1"/><v:tabList/>AES-Key<v:newlineChar/><tspan
						x="6.49" dy="1.25em" class="st4">Convert password hash to AES </tspan><tspan x="43.3" dy="1.2em"
						class="st4">compatible key</tspan></text>		</g>
		<g id="shape29-78" v:mID="29" v:groupContext="shape" transform="translate(867.968,-527.244)">
			<title>Tabelle.29</title>
			<desc>Extact Nonce First 12 Bytes of the decoded Data are the IV</desc>
			<v:textBlock v:margins="rect(4,4,4,4)" v:tabSpace="42.5197"/>
			<v:textRect cx="80.5039" cy="813.528" width="161.01" height="56.7236"/>
			<rect x="0" y="785.166" width="161.008" height="56.7236" rx="5.66929" ry="5.66929" class="st2"/>
			<text x="42.47" y="803.33" class="st3" v:langID="1031"><v:paragraph v:horizAlign="1"/><v:tabList/>Extact Nonce<v:newlineChar/><tspan
						x="9.46" dy="1.25em" class="st4">First 12 Bytes of the decoded </tspan><tspan x="43.97" dy="1.2em"
						class="st4">Data are the IV</tspan></text>		</g>
		<g id="shape31-83" v:mID="31" v:groupContext="shape" v:layerMember="0" transform="translate(561.585,-638.768)">
			<title>Dynamischer Verbinder.31</title>
			<path d="M0 841.89 L0 918.83 A11.3386 11.3386 -180 0 0 11.34 930.17 L113.52 930.17" class="st5"/>
		</g>
		<g id="shape32-88" v:mID="32" v:groupContext="shape" transform="translate(775.559,-609.189)">
			<title>Tabelle.32</title>
			<desc>AES-256 GCM Decrypt data with Nonce and AES-Key</desc>
			<v:textBlock v:margins="rect(4,4,4,4)" v:tabSpace="42.5197"/>
			<v:textRect cx="80.5039" cy="813.528" width="161.01" height="56.7236"/>
			<rect x="0" y="785.166" width="161.008" height="56.7236" rx="5.66929" ry="5.66929" class="st2"/>
			<text x="40.89" y="803.33" class="st3" v:langID="1031"><v:paragraph v:horizAlign="1"/><v:tabList/>AES-256 GCM<v:newlineChar/><tspan
						x="9.27" dy="1.25em" class="st4">Decrypt data with Nonce and </tspan><tspan x="60.69" dy="1.2em"
						class="st4">AES</tspan><tspan class="st4">-</tspan><tspan class="st4">Key</tspan></text>		</g>
		<g id="shape33-95" v:mID="33" v:groupContext="shape" v:layerMember="0" transform="translate(844.157,-476.22)">
			<title>Dynamischer Verbinder.33</title>
			<path d="M0 841.89 L92.98 841.89 A11.3386 11.3386 -180 0 0 104.31 830.55 L104.31 798.91" class="st5"/>
		</g>
		<g id="shape34-100" v:mID="34" v:groupContext="shape" v:layerMember="0" transform="translate(802.772,-583.968)">
			<title>Dynamischer Verbinder.34</title>
			<path d="M7.09 841.89 L7.09 824.71" class="st5"/>
		</g>
		<g id="shape35-105" v:mID="35" v:groupContext="shape" v:layerMember="0" transform="translate(895.181,-583.968)">
			<title>Dynamischer Verbinder.35</title>
			<path d="M7.09 841.89 L7.09 824.71" class="st5"/>
		</g>
		<g id="shape36-110" v:mID="36" v:groupContext="shape" transform="translate(775.559,-702.961)">
			<title>Tabelle.36</title>
			<desc>DISPLAY VAULT</desc>
			<v:textBlock v:margins="rect(4,4,4,4)" v:tabSpace="42.5197"/>
			<v:textRect cx="80.5039" cy="813.528" width="161.01" height="56.7236"/>
			<rect x="0" y="785.166" width="161.008" height="56.7236" rx="5.66929" ry="5.66929" class="st15"/>
			<text x="35.39" y="817.73" class="st16" v:langID="1031"><v:paragraph v:horizAlign="1"/><v:tabList/>DISPLAY VAULT</text>		</g>
		<g id="shape37-113" v:mID="37" v:groupContext="shape" v:layerMember="0" transform="translate(848.976,-665.912)">
			<title>Dynamischer Verbinder.37</title>
			<path d="M7.09 841.89 L7.09 812.88" class="st5"/>
		</g>
		<g id="shape39-118" v:mID="39" v:groupContext="shape" transform="translate(303.256,-623.622)">
			<title>Tabelle.39</title>
			<desc>Argon2id Payload: Master Key Salt: Cleartext Password</desc>
			<v:textBlock v:margins="rect(4,4,4,4)" v:tabSpace="42.5197"/>
			<v:textRect cx="77.9785" cy="813.528" width="155.96" height="56.7236"/>
			<rect x="0" y="785.166" width="155.957" height="56.7236" rx="5.66929" ry="5.66929" class="st2"/>
			<text x="51.39" y="803.33" class="st3" v:langID="1031"><v:paragraph v:horizAlign="1"/><v:tabList/>Argon2id<v:newlineChar/><tspan
						x="28.15" dy="1.25em" class="st4">Payload: Master Key<v:newlineChar/></tspan><tspan x="19.15" dy="1.2em"
						class="st4">Salt: Cleartext Password</tspan></text>		</g>
		<g id="shape42-123" v:mID="42" v:groupContext="shape" transform="translate(131.373,-640.513)">
			<title>Tabelle.42</title>
			<desc>Cleartext Password</desc>
			<v:textBlock v:margins="rect(4,4,4,4)" v:tabSpace="42.5197"/>
			<v:textRect cx="63.0837" cy="828.674" width="126.17" height="26.4319"/>
			<rect x="0" y="815.458" width="126.167" height="26.4319" rx="5.66929" ry="5.66929" class="st2"/>
			<text x="7.03" y="832.87" class="st3" v:langID="1031"><v:paragraph v:horizAlign="1"/><v:tabList/>Cleartext Password</text>		</g>
		<g id="shape44-126" v:mID="44" v:groupContext="shape" v:layerMember="0" transform="translate(194.457,-666.945)">
			<title>Dynamischer Verbinder.44</title>
			<path d="M0 841.89 L0 788.85 A11.3386 11.3386 0 0 1 11.34 777.51 L100.76 777.51" class="st5"/>
		</g>
		<g id="shape46-131" v:mID="46" v:groupContext="shape" v:layerMember="0" transform="translate(257.54,-646.642)">
			<title>Dynamischer Verbinder.46</title>
			<path d="M0 834.8 L37.68 834.8" class="st5"/>
		</g>
		<g id="shape47-136" v:mID="47" v:groupContext="shape" v:layerMember="0" transform="translate(498.564,-644.897)">
			<title>Dynamischer Verbinder.47</title>
			<path d="M0 834.8 L-31.31 834.8" class="st5"/>
		</g>
		<g id="shape48-141" v:mID="48" v:groupContext="shape" transform="translate(303.889,-542.39)">
			<title>Tabelle.48</title>
			<desc>Master Password Hash</desc>
			<v:textBlock v:margins="rect(4,4,4,4)" v:tabSpace="42.5197"/>
			<v:textRect cx="77.9785" cy="828.674" width="155.96" height="26.4319"/>
			<rect x="0" y="815.458" width="155.957" height="26.4319" rx="5.66929" ry="5.66929" class="st2"/>
			<text x="11.6" y="832.87" class="st3" v:langID="1031"><v:paragraph v:horizAlign="1"/><v:tabList/>Master Password Hash</text>		</g>
		<g id="shape49-144" v:mID="49" v:groupContext="shape" v:layerMember="0" transform="translate(374.464,-623.622)">
			<title>Dynamischer Verbinder.49</title>
			<path d="M7.09 841.89 L7.09 888.65" class="st5"/>
		</g>
		<g id="shape50-149" v:mID="50" v:groupContext="shape" v:layerMember="0" transform="translate(379.283,-542.39)">
			<title>Dynamischer Verbinder.50</title>
			<path d="M-7.09 841.89 L-7.09 871.66" class="st5"/>
		</g>
		<g id="group52-154" transform="translate(915.425,-735.236)" v:mID="52" v:groupContext="group">
			<title>Tabelle.52</title>
			<g id="group53-155" v:mID="53" v:groupContext="group">
				<title>Tabelle.53</title>
				<g id="shape54-156" v:mID="54" v:groupContext="shape" transform="translate(0,-15.7895)">
					<title>Tabelle.54</title>
					<ellipse cx="7.36842" cy="839.785" rx="7.36842" ry="2.10526" class="st17"/>
				</g>
				<g id="shape55-158" v:mID="55" v:groupContext="shape" transform="translate(0,-10.5263)">
					<title>Tabelle.55</title>
					<path d="M12.63 839.78 C12.32 839.78 12.11 839.57 12.11 839.26 C12.11 838.94 12.32 838.73 12.63 838.73 C12.95
								 838.73 13.16 838.94 13.16 839.26 C13.16 839.57 12.95 839.78 12.63 839.78 ZM7.37 837.68 C3.32 837.68
								 0 836.73 0 835.57 L0 839.78 C0 840.94 3.32 841.89 7.37 841.89 C11.42 841.89 14.74 840.94 14.74 839.78
								 L14.74 835.57 C14.74 836.73 11.42 837.68 7.37 837.68 Z" class="st17"/>
				</g>
				<g id="shape56-160" v:mID="56" v:groupContext="shape" transform="translate(0,-5.26316)">
					<title>Tabelle.56</title>
					<path d="M12.63 839.78 C12.32 839.78 12.11 839.57 12.11 839.26 C12.11 838.94 12.32 838.73 12.63 838.73 C12.95
								 838.73 13.16 838.94 13.16 839.26 C13.16 839.57 12.95 839.78 12.63 839.78 ZM7.37 837.68 C3.32 837.68
								 0 836.73 0 835.57 L0 839.78 C0 840.94 3.32 841.89 7.37 841.89 C11.42 841.89 14.74 840.94 14.74 839.78
								 L14.74 835.57 C14.74 836.73 11.42 837.68 7.37 837.68 Z" class="st17"/>
				</g>
				<g id="shape57-162" v:mID="57" v:groupContext="shape">
					<title>Tabelle.57</title>
					<path d="M12.63 839.78 C12.32 839.78 12.11 839.57 12.11 839.26 C12.11 838.94 12.32 838.73 12.63 838.73 C12.95
								 838.73 13.16 838.94 13.16 839.26 C13.16 839.57 12.95 839.78 12.63 839.78 ZM7.37 837.68 C3.32 837.68
								 0 836.73 0 835.57 L0 839.78 C0 840.94 3.32 841.89 7.37 841.89 C11.42 841.89 14.74 840.94 14.74 839.78
								 L14.74 835.57 C14.74 836.73 11.42 837.68 7.37 837.68 Z" class="st17"/>
				</g>
			</g>
		</g>
		<g id="shape58-164" v:mID="58" v:groupContext="shape" transform="translate(113.953,-552.725)">
			<title>Tabelle.58</title>
			<desc>LOGIN SCREEN</desc>
			<v:textBlock v:margins="rect(4,4,4,4)" v:tabSpace="42.5197"/>
			<v:textRect cx="80.5039" cy="813.528" width="161.01" height="56.7236"/>
			<rect x="0" y="785.166" width="161.008" height="56.7236" rx="5.66929" ry="5.66929" class="st15"/>
			<text x="37.9" y="817.73" class="st16" v:langID="1031"><v:paragraph v:horizAlign="1"/><v:tabList/>LOGIN SCREEN</text>		</g>
		<g id="shape59-167" v:mID="59" v:groupContext="shape" v:layerMember="0" transform="translate(187.37,-609.449)">
			<title>Dynamischer Verbinder</title>
			<path d="M7.09 841.89 L7.09 818.87" class="st5"/>
		</g>
		<g id="group60-172" transform="translate(991.911,-373.898)" v:mID="60" v:groupContext="group">
			<title>Tabelle.60</title>
			<g id="shape61-173" v:mID="61" v:groupContext="shape">
				<title>Tabelle.61</title>
				<path d="M34.51 830.54 C34.37 830.54 34.18 830.54 34.04 830.54 C34.04 830.54 34.04 830.54 34.04 830.54 C34.04 828.24
							 32.91 826.12 31.08 824.8 C29.19 823.48 26.79 823.15 24.62 823.9 C22.84 820.42 18.88 818.63 15.11 819.53
							 C11.35 820.42 8.62 823.81 8.62 827.72 C8.62 827.72 8.62 827.76 8.62 827.81 C6.03 827.39 3.44 828.47
							 1.84 830.54 C0.28 832.66 0 835.44 1.08 837.79 C2.21 840.15 4.57 841.7 7.16 841.84 L7.16 841.89 L34.47
							 841.89 C37.57 841.89 40.12 839.35 40.12 836.24 C40.12 833.13 37.62 830.54 34.51 830.54 Z" class="st18"/>
			</g>
		</g>
		<g id="group62-175" transform="translate(415.073,-483.117)" v:mID="62" v:groupContext="group">
			<title>Tabelle.62</title>
			<g id="shape63-176" v:mID="63" v:groupContext="shape">
				<title>Tabelle.63</title>
				<path d="M14.1 839.36 L10.28 838.05 L10.26 838.05 L8.73 837.51 L15.89 828.06 L14.1 839.36 ZM9.32 838.64 L7.92 840.04
							 L8.3 838.3 L9.32 838.64 ZM7.62 837.56 C7.58 837.6 7.56 837.66 7.54 837.73 L7.48 838 L7.05 839.94 L6.03
							 836.96 L13.98 829.32 L7.88 837.24 L7.62 837.56 ZM1.49 835.05 L13.93 828.42 L5.42 836.39 L1.49 835.05
							 ZM16.82 826.22 C16.69 826.11 16.5 826.11 16.35 826.19 L0.23 834.75 C0.08 834.84 0 834.99 0 835.16 C0
							 835.33 0.13 835.48 0.28 835.52 L4.69 837.03 L5.25 837.22 L5.37 837.58 L6.69 841.53 L6.69 841.55 L6.69
							 841.57 C6.73 841.7 6.86 841.8 7.01 841.85 C7.16 841.89 7.31 841.85 7.41 841.74 L7.43 841.72 L7.56 841.59
							 L10.24 838.96 L14.31 840.36 C14.44 840.4 14.57 840.38 14.68 840.32 C14.78 840.25 14.87 840.15 14.89
							 840.02 L17.01 826.64 C17.03 826.45 16.95 826.3 16.82 826.22 Z" class="st19"/>
			</g>
		</g>
		<g id="group64-178" transform="translate(606.601,-483.117)" v:mID="64" v:groupContext="group">
			<title>Tabelle.64</title>
			<g id="shape65-179" v:mID="65" v:groupContext="shape">
				<title>Tabelle.65</title>
				<path d="M14.1 839.36 L10.28 838.05 L10.26 838.05 L8.73 837.51 L15.89 828.06 L14.1 839.36 ZM9.32 838.64 L7.92 840.04
							 L8.3 838.3 L9.32 838.64 ZM7.62 837.56 C7.58 837.6 7.56 837.66 7.54 837.73 L7.48 838 L7.05 839.94 L6.03
							 836.96 L13.98 829.32 L7.88 837.24 L7.62 837.56 ZM1.49 835.05 L13.93 828.42 L5.42 836.39 L1.49 835.05
							 ZM16.82 826.22 C16.69 826.11 16.5 826.11 16.35 826.19 L0.23 834.75 C0.08 834.84 0 834.99 0 835.16 C0
							 835.33 0.13 835.48 0.28 835.52 L4.69 837.03 L5.25 837.22 L5.37 837.58 L6.69 841.53 L6.69 841.55 L6.69
							 841.57 C6.73 841.7 6.86 841.8 7.01 841.85 C7.16 841.89 7.31 841.85 7.41 841.74 L7.43 841.72 L7.56 841.59
							 L10.24 838.96 L14.31 840.36 C14.44 840.4 14.57 840.38 14.68 840.32 C14.78 840.25 14.87 840.15 14.89
							 840.02 L17.01 826.64 C17.03 826.45 16.95 826.3 16.82 826.22 Z" class="st19"/>
			</g>
		</g>
		<g id="group66-181" transform="translate(438.649,-739.206)" v:mID="66" v:groupContext="group">
			<title>Tabelle.66</title>
			<g id="shape67-182" v:mID="67" v:groupContext="shape">
				<title>Tabelle.67</title>
				<path d="M6.85 838.4 L6.85 839.61 L5.93 839.61 L5.93 838.4 C5.41 838.22 5.02 837.71 5.02 837.1 C5.02 836.34 5.64
							 835.73 6.39 835.73 C7.14 835.73 7.76 836.34 7.76 837.1 C7.76 837.69 7.37 838.19 6.85 838.4 ZM2.97 830.02
							 C2.97 828.13 4.5 826.6 6.39 826.6 C8.29 826.6 9.81 828.13 9.81 830.02 L9.81 832.55 L6.39 832.3 L2.97
							 832.55 L2.97 830.02 ZM11.18 832.65 L11.18 830.02 C11.18 827.37 9.04 825.23 6.39 825.23 C3.74 825.23
							 1.6 827.37 1.6 830.02 L1.6 832.65 L0 832.76 L0 841.43 L6.39 841.89 L12.78 841.43 L12.78 832.76 L11.18
							 832.65 Z" class="st19"/>
			</g>
		</g>
		<g id="group68-184" transform="translate(438.649,-659.604)" v:mID="68" v:groupContext="group">
			<title>Tabelle.68</title>
			<g id="shape69-185" v:mID="69" v:groupContext="shape">
				<title>Tabelle.69</title>
				<path d="M6.85 838.4 L6.85 839.61 L5.93 839.61 L5.93 838.4 C5.41 838.22 5.02 837.71 5.02 837.1 C5.02 836.34 5.64
							 835.73 6.39 835.73 C7.14 835.73 7.76 836.34 7.76 837.1 C7.76 837.69 7.37 838.19 6.85 838.4 ZM2.97 830.02
							 C2.97 828.13 4.5 826.6 6.39 826.6 C8.29 826.6 9.81 828.13 9.81 830.02 L9.81 832.55 L6.39 832.3 L2.97
							 832.55 L2.97 830.02 ZM11.18 832.65 L11.18 830.02 C11.18 827.37 9.04 825.23 6.39 825.23 C3.74 825.23
							 1.6 827.37 1.6 830.02 L1.6 832.65 L0 832.76 L0 841.43 L6.39 841.89 L12.78 841.43 L12.78 832.76 L11.18
							 832.65 Z" class="st19"/>
			</g>
		</g>
		<g id="group70-187" transform="translate(915.995,-645.201)" v:mID="70" v:groupContext="group">
			<title>Tabelle.70</title>
			<g id="shape71-188" v:mID="71" v:groupContext="shape">
				<title>Tabelle.71</title>
				<path d="M6.85 838.4 L6.85 839.61 L5.93 839.61 L5.93 838.4 C5.41 838.22 5.02 837.71 5.02 837.1 C5.02 836.34 5.64
							 835.73 6.39 835.73 C7.14 835.73 7.76 836.34 7.76 837.1 C7.76 837.69 7.37 838.19 6.85 838.4 ZM2.97 830.02
							 C2.97 828.13 4.5 826.6 6.39 826.6 C8.29 826.6 9.81 828.13 9.81 830.02 L9.81 832.55 L6.39 832.3 L2.97
							 832.55 L2.97 830.02 ZM11.18 832.65 L11.18 830.02 C11.18 827.37 9.04 825.23 6.39 825.23 C3.74 825.23
							 1.6 827.37 1.6 830.02 L1.6 832.65 L0 832.76 L0 841.43 L6.39 841.89 L12.78 841.43 L12.78 832.76 L11.18
							 832.65 Z" class="st19"/>
			</g>
		</g>
	</g>
</svg>
